<?xml version="1.0" encoding="UTF-8" standalone="no"?>
<svg width="498px" height="67px" viewBox="0 0 498 67" version="1.1" xmlns="http://www.w3.org/2000/svg" xmlns:xlink="http://www.w3.org/1999/xlink" xmlns:sketch="http://www.bohemiancoding.com/sketch/ns">
    <!-- Generator: Sketch 3.2.2 (9983) - http://www.bohemiancoding.com/sketch -->
    <title>logo</title>
    <desc>Created with Sketch.</desc>
    <defs></defs>
    <g id="Page-1" stroke="none" stroke-width="1" fill="none" fill-rule="evenodd" sketch:type="MSPage">
        <g id="Brand-Assets" sketch:type="MSArtboardGroup" transform="translate(-126.000000, -445.000000)">
            <g id="logo" sketch:type="MSLayerGroup" transform="translate(126.000000, 445.000000)">
                <g id="Identity-3" transform="translate(68.000000, 24.000000)" sketch:type="MSShapeGroup">
                    <path d="M22.0733333,12.1465546 C20.8633611,9.01871651 18.3848889,6.89567611 14.6391111,6.89567611 C11.18,6.89567611 8.70152778,8.23502057 8.70152778,11.3640163 C8.70152778,18.2911012 30.1418056,16.8371542 30.1418056,29.9076281 C30.1418056,38.1752151 24.7811389,42.3078509 15.5612222,42.3078509 C8.76005556,42.3078509 2.36380556,38.6220491 0,32.7564844 L6.56944444,29.9643506 C8.47219444,33.7612821 10.9506667,36.2755917 15.6185556,36.2755917 C19.5948611,36.2755917 22.6490556,34.8228023 22.6490556,30.9124258 C22.6490556,22.9817008 1.20877778,24.5456199 1.20877778,12.1465546 C1.20877778,4.94280308 7.43541667,0.861101652 14.6391111,0.861101652 C21.3244167,0.861101652 26.8570833,4.10354229 29.3355556,9.9667918 L22.0733333,12.1465546" id="Fill-1" fill="#A1988B"></path>
                    <path d="M36.0077222,41.7510448 L36.0077222,12.7045184 L42.5210278,12.7045184 L42.5210278,15.8311989 C45.2300278,13.433807 47.4194444,12.1465546 51.5116111,12.1465546 C54.6231389,12.1465546 57.5626667,13.5981864 58.8896944,16.3914778 C61.3669722,13.988298 64.2479722,12.1465546 69.2049167,12.1465546 C72.3176389,12.1465546 76.5818056,13.9327331 76.5818056,20.859818 L76.5818056,41.7510448 L69.4354444,41.7510448 L69.4354444,21.4756618 C69.4354444,19.1268892 68.4571944,17.8442672 65.8628611,17.7331375 C64.0186389,17.7331375 61.5413611,19.3503062 59.8679444,20.859818 L59.8679444,41.7510448 L52.7227778,41.7510448 L52.7227778,21.4756618 C52.7227778,19.1268892 51.7409444,17.8442672 49.149,17.7331375 C47.3047778,17.7331375 44.8263056,19.3503062 43.1552778,20.859818 L43.1552778,41.7510448 L36.0077222,41.7510448" id="Fill-2" fill="#A1988B"></path>
                    <path d="M84.4209444,0.861101652 L91.5661111,0.861101652 L91.5661111,7.34251013 L84.4209444,7.34251013 L84.4209444,0.861101652 Z M84.4209444,12.7045184 L91.5661111,12.7045184 L91.5661111,41.7510448 L84.4209444,41.7510448 L84.4209444,12.7045184 Z" id="Fill-3" fill="#A1988B"></path>
                    <path d="M101.084639,12.7045184 L101.084639,3.09758695 L108.229806,3.09758695 L108.229806,12.7045184 L114.108861,12.7045184 L114.108861,18.2911012 L108.229806,18.2911012 L108.229806,34.7128302 C108.229806,36.2755917 109.03725,36.7224257 110.824139,36.7224257 C111.919444,36.7224257 113.072083,36.3867214 114.108861,36.1633044 L114.108861,41.8621745 C112.149972,42.0855915 110.419222,42.3078509 108.461528,42.3078509 C103.159389,42.3078509 101.084639,39.7391341 101.084639,35.6041831 L101.084639,18.2911012 L96.9339444,18.2911012 L96.9339444,12.7045184 L101.084639,12.7045184" id="Fill-4" fill="#A1988B"></path>
                    <path d="M119.833833,41.7510448 L119.833833,1.42253818 L126.981389,1.42253818 L126.981389,15.8311989 C129.170806,14.046178 132.110333,12.1465546 135.625583,12.1465546 C141.618111,12.1465546 144.5015,15.9458014 144.5015,21.8657734 L144.5015,41.7510448 L137.353944,41.7510448 L137.353944,22.8705711 C137.353944,18.9601946 136.086639,17.7331375 133.6655,17.7331375 C130.552778,17.7331375 128.190167,19.4649087 126.981389,20.8065684 L126.981389,41.7510448 L119.833833,41.7510448" id="Fill-5" fill="#A1988B"></path>
                    <path d="M189.438889,24.2110732 L189.438889,30.24449 L177.567306,30.24449 L177.567306,41.7510448 L171.343056,41.7510448 L171.343056,30.24449 L159.470278,30.24449 L159.470278,24.2110732 L171.343056,24.2110732 L171.343056,12.7045184 L177.567306,12.7045184 L177.567306,24.2110732 L189.438889,24.2110732" id="Fill-6" fill="#A1988B"></path>
                    <path d="M213.104417,1.36813093 L223.018306,1.36813093 L234.831361,41.7510448 L226.936083,41.7510448 L224.632,33.0354662 L211.490722,33.0354662 L209.011056,41.7510448 L201.116972,41.7510448 L213.104417,1.36813093 L213.104417,1.36813093 Z M213.217889,26.6675027 L222.900056,26.6675027 L218.233361,9.13100381 L218.1175,9.13100381 L213.217889,26.6675027 L213.217889,26.6675027 Z" id="Fill-7" fill="#E5801C"></path>
                    <path d="M239.272306,41.7510448 L239.272306,12.7045184 L245.845333,12.7045184 L245.845333,15.8311989 C248.494611,14.046178 251.551194,12.1465546 255.067639,12.1465546 C261.061361,12.1465546 263.939972,15.9458014 263.939972,21.8657734 L263.939972,41.7510448 L256.793611,41.7510448 L256.793611,22.8705711 C256.793611,18.9601946 255.528694,17.7331375 253.105167,17.7331375 C249.996028,17.7331375 247.632222,19.4649087 246.419861,20.8065684 L246.419861,41.7510448 L239.272306,41.7510448" id="Fill-8" fill="#E5801C"></path>
                    <path d="M295.519889,41.7510448 L289.470028,41.7510448 L289.12125,38.6220491 C286.585444,41.0217561 284.224028,42.3078509 280.996639,42.3078509 C273.042833,42.3078509 269.008,35.4918957 269.008,26.4464009 C269.008,19.2947413 273.273361,12.1465546 280.996639,12.1465546 C283.417778,12.1465546 286.815972,13.5414639 288.258861,15.3843649 L288.374722,15.3843649 L288.374722,1.42253818 L295.519889,1.42253818 L295.519889,41.7510448 L295.519889,41.7510448 Z M288.374722,20.189567 C286.935417,18.9034722 285.146139,17.7331375 282.840861,17.7331375 C278.576694,17.7331375 276.155556,21.0820774 276.155556,27.2277816 C276.155556,33.3711706 278.576694,36.7224257 282.840861,36.7224257 C285.895056,36.7224257 286.8745,35.2696363 288.374722,34.1513937 L288.374722,20.189567 L288.374722,20.189567 Z" id="Fill-9" fill="#E5801C"></path>
                    <path d="M307.860889,28.343709 C307.97675,34.3771259 310.743083,36.7224257 314.085139,36.7224257 C317.428389,36.7224257 318.983556,35.2696363 320.771639,33.2600409 L325.959111,36.3867214 C323.192778,40.5205149 319.15675,42.3078509 313.39475,42.3078509 C305.61175,42.3078509 300.715722,36.445759 300.715722,27.2277816 C300.715722,18.0098041 305.61175,12.1465546 313.739944,12.1465546 C321.579083,12.0921474 325.959111,18.5133606 325.959111,25.497168 L325.959111,28.343709 L307.860889,28.343709 L307.860889,28.343709 Z M319.389667,23.6519518 C319.275,19.6316033 317.083194,17.2851459 313.626472,17.2851459 C310.166167,17.2851459 307.97675,19.6316033 307.860889,23.6519518 L319.389667,23.6519518 L319.389667,23.6519518 Z" id="Fill-10" fill="#E5801C"></path>
                    <path d="M331.736639,41.7510448 L331.736639,12.7045184 L338.304889,12.7045184 L338.304889,17.6775726 L338.42075,17.6775726 C340.1515,14.2128726 342.57025,12.2576843 346.834417,12.1465546 L346.834417,19.4649087 C346.489222,19.4081863 346.083111,19.4081863 345.567111,19.4081863 C341.993333,19.4081863 338.881806,23.3718124 338.881806,24.0999435 L338.881806,41.7510448 L331.736639,41.7510448" id="Fill-11" fill="#E5801C"></path>
                    <path d="M365.975389,20.3585767 C364.5325,18.8467497 362.62975,17.2851459 360.384194,17.2851459 C357.615472,17.2851459 356.348167,18.4033885 356.348167,20.1328445 C356.348167,25.1047412 371.332472,22.9817008 371.332472,33.5945876 C371.332472,39.6280044 366.60725,42.3078509 360.325667,42.3078509 C355.540722,42.3078509 351.62175,40.241533 348.971278,36.445759 L353.756222,32.9787438 C355.426056,35.2129139 357.675194,37.1692597 360.728194,37.1692597 C363.265194,37.1692597 364.993556,35.8287577 364.993556,33.8724118 C364.993556,28.903988 350.008056,30.691324 350.008056,20.5808362 C350.008056,15.1621055 354.735667,12.1465546 359.923139,12.1465546 C363.900639,12.1465546 367.874556,13.5981864 370.467694,16.5604876 L365.975389,20.3585767" id="Fill-12" fill="#E5801C"></path>
                    <path d="M381.470917,28.343709 C381.585583,34.3771259 384.351917,36.7224257 387.695167,36.7224257 C391.038417,36.7224257 392.592389,35.2696363 394.381667,33.2600409 L399.567944,36.3867214 C396.800417,40.5205149 392.766778,42.3078509 387.002389,42.3078509 C379.221778,42.3078509 374.324556,36.445759 374.324556,27.2277816 C374.324556,18.0098041 379.221778,12.1465546 387.349972,12.1465546 C395.186722,12.0921474 399.567944,18.5133606 399.567944,25.497168 L399.567944,28.343709 L381.470917,28.343709 L381.470917,28.343709 Z M392.997306,23.6519518 C392.883833,19.6316033 390.693222,17.2851459 387.232917,17.2851459 C383.776194,17.2851459 381.585583,19.6316033 381.470917,23.6519518 L392.997306,23.6519518 L392.997306,23.6519518 Z" id="Fill-13" fill="#E5801C"></path>
                    <path d="M405.334722,41.7510448 L405.334722,12.7045184 L411.906556,12.7045184 L411.906556,15.8311989 C414.554639,14.046178 417.610028,12.1465546 421.125278,12.1465546 C427.119,12.1465546 430,15.9458014 430,21.8657734 L430,41.7510448 L422.854833,41.7510448 L422.854833,22.8705711 C422.854833,18.9601946 421.585139,17.7331375 419.165194,17.7331375 C416.053667,17.7331375 413.688667,19.4649087 412.479889,20.8065684 L412.479889,41.7510448 L405.334722,41.7510448" id="Fill-14" fill="#E5801C"></path>
                </g>
                <g id="Symbol-3" sketch:type="MSShapeGroup">
                    <path d="M16.9062624,33.65182 C26.1977073,33.65182 33.7276171,26.3799131 33.7276171,17.4082254 C33.7276171,8.43755558 26.1977073,1.16463092 16.9062624,1.16463092 C7.618401,1.16463092 0.0864434959,8.43755558 0.0864434959,17.4082254 C0.0864434959,26.3799131 7.618401,33.65182 16.9062624,33.65182 M17.1048894,33.7144167 C7.8165161,33.7144167 0.285070527,40.9873413 0.285070527,49.9575023 C0.285070527,58.9281722 7.8165161,66.2005879 17.1048894,66.2005879 C18.212184,66.2005879 19.130578,66.2219624 20.1769534,66.0245028 L28.4870374,38.0213764 C25.4917623,35.3551632 21.5018162,33.7144167 17.1048894,33.7144167" id="Fill-1" fill="#A1988B"></path>
                    <path d="M39.0854277,0.735614371 L28.4184394,38.0223942 C31.7556807,40.9903948 33.8571342,45.2317044 33.8571342,49.9575023 C33.8571342,57.8594477 28.0129946,64.4366836 20.2721715,65.8937113 L20.2117643,66.1003314 L57.993902,66.1654727 L39.0854277,0.735614371 Z" id="Fill-2" fill="#E5801B"></path>
                </g>
            </g>
        </g>
    </g>
</svg>